<?xml version="1.0" encoding="UTF-8"?>
<svg version="1.1" xmlns="http://www.w3.org/2000/svg" width="793" height="179">
<path d="M0 0 C261.69 0 523.38 0 793 0 C793 59.07 793 118.14 793 179 C531.31 179 269.62 179 0 179 C0 119.93 0 60.86 0 0 Z " fill="#FBFCFC" transform="translate(0,0)"/>
<path d="M0 0 C3.65014731 3.02884564 5.56395452 4.71252046 6.703125 9.328125 C8.064375 9.76125 8.064375 9.76125 9.453125 10.203125 C14.34190466 11.89539488 16.46959534 15.21350273 19.015625 19.578125 C21.35813768 28.94817572 18.58294325 37.40583095 15.703125 46.328125 C16.30125 46.59625 16.899375 46.864375 17.515625 47.140625 C19.75074217 48.35397432 21.1462822 49.32237661 22.703125 51.328125 C23.85969197 57.1789932 22.51175347 62.21240886 19.703125 67.328125 C17.35348296 70.40696629 16.26177838 71.19920499 12.453125 72.078125 C11.545625 72.160625 10.638125 72.243125 9.703125 72.328125 C9.661875 73.42125 9.620625 74.514375 9.578125 75.640625 C8.51761934 84.06492345 2.98591987 92.70736017 -3.296875 98.328125 C-12.7996556 105.53574249 -21.12421591 110.71093907 -33.296875 109.328125 C-40.1387965 107.91387307 -45.11729679 103.81830226 -50.296875 99.328125 C-51.00199219 98.74160156 -51.70710938 98.15507812 -52.43359375 97.55078125 C-58.59838747 91.99659567 -63.99476811 83.92465507 -64.453125 75.43359375 C-64.4015625 74.73878906 -64.35 74.04398437 -64.296875 73.328125 C-65.04453125 73.24304688 -65.7921875 73.15796875 -66.5625 73.0703125 C-69.85329624 72.17709638 -70.89509781 71.05239567 -73.046875 68.453125 C-73.93632813 67.40511719 -73.93632813 67.40511719 -74.84375 66.3359375 C-78.25013084 61.6292715 -77.88853981 55.89477422 -77.296875 50.328125 C-75.671875 47.640625 -75.671875 47.640625 -73.296875 46.328125 C-71.2975535 46.2760335 -69.29604797 46.27061454 -67.296875 46.328125 C-67.73 45.30074219 -68.163125 44.27335937 -68.609375 43.21484375 C-75.14982802 27.18763043 -75.14982802 27.18763043 -73.296875 19.328125 C-70.47590859 12.91413821 -66.67845138 9.09748834 -60.296875 6.328125 C-59.306875 6.328125 -58.316875 6.328125 -57.296875 6.328125 C-57.131875 5.626875 -56.966875 4.925625 -56.796875 4.203125 C-53.8571181 -1.43140906 -48.50178859 -4.46440044 -42.609375 -6.484375 C-41.1770338 -6.89848725 -39.74001029 -7.29710731 -38.296875 -7.671875 C-37.4925 -7.89875 -36.688125 -8.125625 -35.859375 -8.359375 C-23.55374916 -9.86006108 -10.1645643 -7.39869646 0 0 Z M-51.296875 20.328125 C-52.88723702 22.38135358 -54.35385791 24.42512506 -55.796875 26.578125 C-56.20035156 27.16464844 -56.60382813 27.75117187 -57.01953125 28.35546875 C-60.44555827 33.3870926 -62.56052735 36.59941337 -62.4921875 42.75 C-62.48574219 43.77480469 -62.47929688 44.79960938 -62.47265625 45.85546875 C-62.45589844 46.91894531 -62.43914062 47.98242188 -62.421875 49.078125 C-62.41285156 50.15707031 -62.40382813 51.23601562 -62.39453125 52.34765625 C-62.37098805 55.00803778 -62.33810299 57.66796836 -62.296875 60.328125 C-63.286875 59.998125 -64.276875 59.668125 -65.296875 59.328125 C-65.626875 56.688125 -65.956875 54.048125 -66.296875 51.328125 C-68.18866703 50.6466427 -68.18866703 50.6466427 -70.296875 50.328125 C-72.69411445 52.30320592 -72.69411445 52.30320592 -72.671875 56.078125 C-72.57744405 60.79108799 -70.63059677 63.99440323 -67.296875 67.328125 C-64.96390067 67.36905437 -62.62982275 67.37054223 -60.296875 67.328125 C-60.28269531 67.93398437 -60.26851562 68.53984375 -60.25390625 69.1640625 C-59.61916583 80.31490763 -54.50834657 88.87222286 -46.296875 96.328125 C-39.65729186 101.05477946 -33.14112521 105.19079073 -24.8203125 103.98828125 C-14.82090195 101.37233638 -5.44866631 94.12288425 0.515625 85.765625 C3.11064554 81.32466201 4.18983792 76.32968987 5.27270508 71.34350586 C5.65998891 69.64873457 6.1728305 67.98372949 6.703125 66.328125 C7.693125 65.998125 8.683125 65.668125 9.703125 65.328125 C9.703125 65.988125 9.703125 66.648125 9.703125 67.328125 C12.95202154 67.09606096 13.75876744 66.26475444 15.953125 63.765625 C18.16568848 59.41951817 18.18454966 57.14237159 17.703125 52.328125 C16.713125 51.338125 16.713125 51.338125 15.703125 50.328125 C14.713125 50.328125 13.723125 50.328125 12.703125 50.328125 C12.043125 53.958125 11.383125 57.588125 10.703125 61.328125 C9.713125 61.328125 8.723125 61.328125 7.703125 61.328125 C7.72930908 60.70881104 7.75549316 60.08949707 7.7824707 59.45141602 C7.88751922 56.59808553 7.95178549 53.74516325 8.015625 50.890625 C8.05751953 49.91673828 8.09941406 48.94285156 8.14257812 47.93945312 C8.26147586 40.82936832 6.83379545 36.13669344 2.703125 30.328125 C0.91606548 28.54106548 -1.76072238 29.17675602 -4.17578125 29.15234375 C-37.26775476 28.58408235 -37.26775476 28.58408235 -49.296875 20.328125 C-49.956875 20.328125 -50.616875 20.328125 -51.296875 20.328125 Z " fill="#062F57" transform="translate(128.296875,43.671875)"/>
<path d="M0 0 C3.96 0 7.92 0 12 0 C14.77618774 3.52038725 16.23961242 6.01135643 18 10 C19.05901185 11.98523637 20.12957377 13.96434972 21.2109375 15.9375 C22.26883796 17.95665322 23.32350863 19.97750179 24.375 22 C24.92027344 23.03511719 25.46554687 24.07023437 26.02734375 25.13671875 C26.54167969 26.12285156 27.05601562 27.10898438 27.5859375 28.125 C28.0504834 29.01445313 28.5150293 29.90390625 28.99365234 30.8203125 C30 33 30 33 30 35 C30.66 35 31.32 35 32 35 C32.38285156 33.99259766 32.38285156 33.99259766 32.7734375 32.96484375 C34.24027875 29.41919881 35.90867319 25.99183383 37.625 22.5625 C37.97111328 21.86962891 38.31722656 21.17675781 38.67382812 20.46289062 C42.19359992 13.49310827 46.04582668 6.73050779 50 0 C53.96 0 57.92 0 62 0 C62 19.8 62 39.6 62 60 C58.04 60 54.08 60 50 60 C49.67 48.78 49.34 37.56 49 26 C45.13671541 33.47710709 45.13671541 33.47710709 41.28173828 40.95849609 C40.55833252 42.35189209 40.55833252 42.35189209 39.8203125 43.7734375 C39.32805176 44.72653809 38.83579102 45.67963867 38.32861328 46.66162109 C37 49 37 49 35 51 C32.8359375 51.1953125 32.8359375 51.1953125 30.375 51.125 C29.55773437 51.10695312 28.74046875 51.08890625 27.8984375 51.0703125 C27.27195312 51.04710937 26.64546875 51.02390625 26 51 C25.47043701 49.9330188 25.47043701 49.9330188 24.93017578 48.84448242 C23.33054493 45.62444287 21.72781041 42.40595798 20.125 39.1875 C19.56941406 38.06794922 19.01382813 36.94839844 18.44140625 35.79492188 C17.63896484 34.18520508 17.63896484 34.18520508 16.8203125 32.54296875 C16.32805176 31.55321045 15.83579102 30.56345215 15.32861328 29.54370117 C13.98710247 26.86532134 13.98710247 26.86532134 12 24 C11.67 35.88 11.34 47.76 11 60 C7.37 60 3.74 60 0 60 C0 40.2 0 20.4 0 0 Z " fill="#0C3258" transform="translate(536,69)"/>
<path d="M0 0 C5.28 -0.103125 10.56 -0.20625 16 -0.3125 C17.65 -0.35802002 19.3 -0.40354004 21 -0.45043945 C28.75647338 -0.57495991 34.98271075 -0.47349707 41 5 C41.99 5.78375 42.98 6.5675 44 7.375 C47.28998024 11.62085288 46.51021932 17.24302352 46.46875 22.34375 C45.81372982 27.45290743 44.29694078 30.76956901 40.5625 34.3125 C38.20143532 35.86734747 36.69697274 36.42166827 34 37 C34.38333496 37.51908936 34.76666992 38.03817871 35.16162109 38.57299805 C36.90503509 40.940418 38.64006511 43.31386018 40.375 45.6875 C40.97828125 46.50412109 41.5815625 47.32074219 42.203125 48.16210938 C42.78320312 48.95810547 43.36328125 49.75410156 43.9609375 50.57421875 C44.49509277 51.30213623 45.02924805 52.03005371 45.57958984 52.7800293 C47.07032009 55.10990384 48.05498116 57.40618246 49 60 C44.14924241 60.73578907 39.82197165 61.0225279 35 60 C31.35209921 56.50948168 29.3056988 52.45027647 27 48 C26.0290155 46.60435889 25.03426501 45.22441502 24 43.875 C22 41 22 41 22 39 C18.7 39 15.4 39 12 39 C12 45.93 12 52.86 12 60 C8.04 60 4.08 60 0 60 C0 40.2 0 20.4 0 0 Z " fill="#11AC63" transform="translate(674,69)"/>
<path d="M0 0 C1.91394364 1.18984063 3.66757207 2.41292445 5.38671875 3.8671875 C5.38671875 2.2171875 5.38671875 0.5671875 5.38671875 -1.1328125 C9.34671875 -1.1328125 13.30671875 -1.1328125 17.38671875 -1.1328125 C17.38671875 13.3871875 17.38671875 27.9071875 17.38671875 42.8671875 C13.42671875 42.8671875 9.46671875 42.8671875 5.38671875 42.8671875 C5.38671875 41.2171875 5.38671875 39.5671875 5.38671875 37.8671875 C4.72671875 37.8671875 4.06671875 37.8671875 3.38671875 37.8671875 C3.38671875 38.5271875 3.38671875 39.1871875 3.38671875 39.8671875 C-2.46763983 44.03028694 -7.4744052 45.04844037 -14.61328125 43.8671875 C-20.90484628 41.36546536 -25.72611225 36.6950622 -28.71484375 30.6328125 C-30.77303029 24.29717742 -30.92486748 16.3293894 -28.55078125 10.0625 C-22.31613378 -0.00103423 -11.4845576 -4.9783583 0 0 Z " fill="#10365C" transform="translate(417.61328125,86.1328125)"/>
<path d="M0 0 C4.62 0 9.24 0 14 0 C18.23245776 9.85122922 22.34085987 19.67226993 25.85546875 29.8046875 C27.33133266 33.92501745 29.02259044 37.93641968 30.73046875 41.96484375 C32.13962319 45.33380684 33.48658167 48.72243213 34.8125 52.125 C35.23144531 53.20007813 35.65039062 54.27515625 36.08203125 55.3828125 C37 58 37 58 37 60 C32.71 60 28.42 60 24 60 C21 51.375 21 51.375 21 48 C12.09 48 3.18 48 -6 48 C-6.33 49.65 -6.66 51.3 -7 53 C-7.89305874 55.39228689 -8.94896026 57.66943362 -10 60 C-14.29 60 -18.58 60 -23 60 C-21.19343281 53.53439113 -19.02441803 47.44000495 -16.38671875 41.26953125 C-14.87264147 37.69972088 -13.42997684 34.10401784 -12 30.5 C-10.17073607 25.89675169 -8.30200549 21.31333816 -6.375 16.75 C-4.05743024 11.22983385 -2.00409025 5.64114292 0 0 Z " fill="#15AB66" transform="translate(628,69)"/>
<path d="M0 0 C3.96 0 7.92 0 12 0 C12.33 8.58 12.66 17.16 13 26 C16.20789382 21.72687774 16.20789382 21.72687774 19.40185547 17.44335938 C20.55482511 15.92583084 21.775967 14.46081315 23 13 C23.66 13 24.32 13 25 13 C25.185625 12.319375 25.37125 11.63875 25.5625 10.9375 C27.67879103 6.61290529 29.71423001 3.38547575 34 1 C39.07426877 0.40486971 43.91833817 0.58797337 49 1 C44.54710831 7.23404836 39.62440906 12.94968581 34.49536133 18.63110352 C30.06479094 23.2489419 30.06479094 23.2489419 28 29 C29.5607797 32.1415694 31.65830361 34.80614521 33.8125 37.5625 C34.40893311 38.35591797 35.00536621 39.14933594 35.61987305 39.96679688 C37.39651641 42.32451836 39.19548223 44.66357623 41 47 C42.38346932 48.8131154 43.762987 50.62902563 45.13745117 52.44897461 C46.24487826 53.91074155 47.36615045 55.36198981 48.48828125 56.8125 C50 59 50 59 50 61 C36.91685809 62.51542184 36.91685809 62.51542184 32.76171875 59.23046875 C30.96206397 56.5717902 29.49305865 53.84220804 28 51 C26.45591476 48.60319082 24.82318351 46.27238472 23.1875 43.9375 C22.80158691 43.36555908 22.41567383 42.79361816 22.01806641 42.2043457 C19.98206071 39.09658502 19.98206071 39.09658502 17 37 C16.566875 37.928125 16.566875 37.928125 16.125 38.875 C15 41 15 41 13 43 C12.63168919 44.93257855 12.63168919 44.93257855 12.5859375 47.1328125 C12.52792969 48.34130859 12.52792969 48.34130859 12.46875 49.57421875 C12.42234375 50.83685547 12.42234375 50.83685547 12.375 52.125 C12.31699219 53.39923828 12.31699219 53.39923828 12.2578125 54.69921875 C12.16343506 56.79911684 12.08062414 58.89952891 12 61 C8.04 61 4.08 61 0 61 C0 40.87 0 20.74 0 0 Z " fill="#12AA63" transform="translate(733,68)"/>
<path d="M0 0 C3.96 0 7.92 0 12 0 C12.33 1.32 12.66 2.64 13 4 C13.721875 3.34 14.44375 2.68 15.1875 2 C20.22774269 -1.32823627 26.24240285 -0.92683271 32 0 C37.76289592 2.61299008 40.55813668 6.2265664 43 12 C43.34057617 15.61865234 43.34057617 15.61865234 43.29296875 19.5859375 C43.28872391 20.28772125 43.28447906 20.989505 43.28010559 21.71255493 C43.26343599 23.9337756 43.22580872 26.15405788 43.1875 28.375 C43.17243788 29.88930973 43.15875216 31.40363381 43.14648438 32.91796875 C43.11357183 36.61227932 43.06187259 40.30604793 43 44 C39.04 44 35.08 44 31 44 C30.99589111 43.14245117 30.99178223 42.28490234 30.98754883 41.40136719 C30.96053031 38.21015559 30.91140722 35.02025755 30.84741211 31.82958984 C30.82425961 30.45047803 30.80984274 29.0711901 30.80444336 27.69189453 C30.79513583 25.70581105 30.75148515 23.71998274 30.70703125 21.734375 C30.6913208 20.54038086 30.67561035 19.34638672 30.65942383 18.11621094 C30.25559211 14.83692121 30.25559211 14.83692121 27.67456055 12.61425781 C24.12102278 10.4694845 22.08477375 10.3435185 18 11 C14.77972592 13.55476057 13.19579728 15.06827753 12.34057617 19.13793945 C12.32486572 20.28480225 12.30915527 21.43166504 12.29296875 22.61328125 C12.26396484 23.86044922 12.23496094 25.10761719 12.20507812 26.39257812 C12.19927734 27.68615234 12.19347656 28.97972656 12.1875 30.3125 C12.16236328 31.62541016 12.13722656 32.93832031 12.11132812 34.29101562 C12.05249165 37.52702167 12.02337559 40.76354354 12 44 C8.04 44 4.08 44 0 44 C0 29.48 0 14.96 0 0 Z " fill="#10355A" transform="translate(445,85)"/>
<path d="M0 0 C4.44882196 2.14496773 7.28771205 4.88134052 10 9 C11.08916176 13.0332259 11.11537004 16.88804083 11.09765625 21.05078125 C11.0962413 21.70958786 11.09482635 22.36839447 11.09336853 23.04716492 C11.087805 25.13565762 11.07525947 27.22404011 11.0625 29.3125 C11.05748028 30.73502449 11.0529182 32.15755066 11.04882812 33.58007812 C11.03784757 37.05342077 11.02060835 40.52669961 11 44 C7.04 44 3.08 44 -1 44 C-1.495 28.655 -1.495 28.655 -2 13 C-6.75648177 11.09740729 -9.03216867 10.29030981 -14 11 C-17.48076831 13.82334648 -18.76658625 15.56713103 -19.49267578 20.02441406 C-19.71667324 23.64817254 -19.7954818 27.24445147 -19.8125 30.875 C-19.83763672 32.13570312 -19.86277344 33.39640625 -19.88867188 34.6953125 C-19.94741953 37.79718887 -19.98379231 40.89765777 -20 44 C-23.63 44 -27.26 44 -31 44 C-31 29.81 -31 15.62 -31 1 C-27.37 1 -23.74 1 -20 1 C-20 2.32 -20 3.64 -20 5 C-19.56171875 4.6390625 -19.1234375 4.278125 -18.671875 3.90625 C-12.69264865 -0.46879367 -7.27894624 -1.10721999 0 0 Z " fill="#0B3259" transform="translate(290,85)"/>
<path d="M0 0 C0.99 0 1.98 0 3 0 C3.0825 0.61875 3.165 1.2375 3.25 1.875 C3.79278299 4.15354435 3.79278299 4.15354435 5.875 5.0625 C6.57625 5.371875 7.2775 5.68125 8 6 C9.99646666 7.60395744 10.89586883 8.4732188 11.3984375 11.015625 C11.32978305 17.56068297 10.24449838 22.05893316 6.1875 27.375 C3.48299199 29.38406309 1.31941546 29.69823496 -2 30 C-2.04125 31.093125 -2.0825 32.18625 -2.125 33.3125 C-3.18550566 41.73679845 -8.71720513 50.37923517 -15 56 C-24.5027806 63.20761749 -32.82734091 68.38281407 -45 67 C-51.8419215 65.58574807 -56.82042179 61.49017726 -62 57 C-62.70511719 56.41347656 -63.41023438 55.82695312 -64.13671875 55.22265625 C-70.30151247 49.66847067 -75.69789311 41.59653007 -76.15625 33.10546875 C-76.1046875 32.41066406 -76.053125 31.71585938 -76 31 C-76.74765625 30.91492188 -77.4953125 30.82984375 -78.265625 30.7421875 C-81.55642124 29.84897138 -82.59822281 28.72427067 -84.75 26.125 C-85.34296875 25.42632812 -85.9359375 24.72765625 -86.546875 24.0078125 C-89.95934281 19.29273601 -89.57669948 13.57476168 -89 8 C-87.5 5.375 -87.5 5.375 -85 4 C-78.2712766 2.3643617 -78.2712766 2.3643617 -75 4 C-74.67 3.01 -74.34 2.02 -74 1 C-74 6.61 -74 12.22 -74 18 C-75.32 17.67 -76.64 17.34 -78 17 C-78.33 14.36 -78.66 11.72 -79 9 C-80.32 9.33 -81.64 9.66 -83 10 C-83.31817712 14.61356825 -83.36922033 17.18771527 -81.4375 21.4375 C-78.36868276 24.66369248 -76.36478343 24.83212371 -72 25 C-71.82984375 25.7734375 -71.6596875 26.546875 -71.484375 27.34375 C-68.88520825 38.51463687 -65.1970451 47.9170869 -55.5 54.765625 C-49.22019218 58.61574527 -44.01120299 61.73496416 -36.52734375 60.6640625 C-26.38039378 57.99793963 -16.4117442 50.61023416 -11.09765625 41.53125 C-8.6704005 35.9338773 -7.38111751 29.92568855 -6 24 C-4.68 23.67 -3.36 23.34 -2 23 C-2 23.66 -2 24.32 -2 25 C0.51235884 23.67770588 2.55434266 22.57298801 4.3125 20.3125 C5.34720816 16.832118 5.12078138 13.62344134 5 10 C3.68 9.34 2.36 8.68 1 8 C0.93941406 8.62648438 0.87882812 9.25296875 0.81640625 9.8984375 C0.69072266 11.12433594 0.69072266 11.12433594 0.5625 12.375 C0.44068359 13.59316406 0.44068359 13.59316406 0.31640625 14.8359375 C0 17 0 17 -1 19 C-1.99 19 -2.98 19 -4 19 C-4 16.69 -4 14.38 -4 12 C-3.01 12 -2.02 12 -1 12 C-1.309375 10.14375 -1.309375 10.14375 -1.625 8.25 C-2.06107124 4.88090165 -2.03403639 2.87158079 0 0 Z " fill="#16355A" transform="translate(140,86)"/>
<path d="M0 0 C0 0.99 0 1.98 0 3 C-0.66 3 -1.32 3 -2 3 C-2 3.66 -2 4.32 -2 5 C-3.25 6.6875 -3.25 6.6875 -5 8 C-7.3047022 7.7769643 -8.77674474 7.13554784 -10.75 5.9375 C-14.18266365 4.50722348 -17.30017984 4.87667266 -21 5 C-21 6.65 -21 8.3 -21 10 C-20.28714844 10.18175781 -19.57429688 10.36351563 -18.83984375 10.55078125 C-2.52222222 14.83333333 -2.52222222 14.83333333 2 21 C2.67488811 25.72421678 2.52128751 27.89226404 0.5 32.1875 C-3.74517766 36.96332486 -7.03930863 39.56101232 -13.50390625 40.51953125 C-21.28417069 40.85712093 -26.77341139 39.93126681 -33.33984375 35.703125 C-35 34 -35 34 -35 30 C-32.6875 27.25 -32.6875 27.25 -30 25 C-29.01 25 -28.02 25 -27 25 C-26.505 25.66 -26.01 26.32 -25.5 27 C-21.47774811 30.21780151 -16.96465334 29.3081509 -12 29 C-11.67 27.68 -11.34 26.36 -11 25 C-15.03620799 22.30919467 -19.05140471 21.87754807 -23.7734375 20.9765625 C-28.63022129 19.50659162 -31.21301242 17.18048137 -34 13 C-34.70351326 8.17357185 -34.73487541 4.2163455 -32.1875 0 C-22.87979411 -8.50990253 -9.90852091 -6.01819058 0 0 Z " fill="#10355B" transform="translate(344,90)"/>
<path d="M0 0 C3.63 0 7.26 0 11 0 C11 4.29 11 8.58 11 13 C14.96 13 18.92 13 23 13 C23 15.97 23 18.94 23 22 C19.04 22 15.08 22 11 22 C11.14062311 25.43778631 11.28726929 28.87513171 11.4375 32.3125 C11.47681641 33.28896484 11.51613281 34.26542969 11.55664062 35.27148438 C11.59853516 36.20927734 11.64042969 37.14707031 11.68359375 38.11328125 C11.72025146 38.97735596 11.75690918 39.84143066 11.79467773 40.73168945 C11.92747354 43.1647826 11.92747354 43.1647826 13 46 C17.95 45.505 17.95 45.505 23 45 C23.33 48.3 23.66 51.6 24 55 C19.20125336 57.55933154 14.29742233 57.66836637 9 57 C5.3731075 55.77110785 2.64977757 54.24866895 0.82470703 50.74145508 C-0.11097506 47.63110156 -0.2272904 45.06997515 -0.1953125 41.82421875 C-0.18886719 40.66728516 -0.18242187 39.51035156 -0.17578125 38.31835938 C-0.15902344 37.12017578 -0.14226562 35.92199219 -0.125 34.6875 C-0.11597656 33.46998047 -0.10695313 32.25246094 -0.09765625 30.99804688 C-0.07413037 27.99849726 -0.04125653 24.99934956 0 22 C-2.31 22 -4.62 22 -7 22 C-7 19.03 -7 16.06 -7 13 C-4.69 13 -2.38 13 0 13 C0 8.71 0 4.42 0 0 Z " fill="#0B3259" transform="translate(358,73)"/>
<path d="M0 0 C3.63 0 7.26 0 11 0 C11 4.29 11 8.58 11 13 C14.63 13 18.26 13 22 13 C22 15.97 22 18.94 22 22 C18.37 22 14.74 22 11 22 C11.11350996 25.45906666 11.24026306 28.91675193 11.375 32.375 C11.4059375 33.35984375 11.436875 34.3446875 11.46875 35.359375 C11.50742187 36.30039063 11.54609375 37.24140625 11.5859375 38.2109375 C11.63306885 39.51490479 11.63306885 39.51490479 11.68115234 40.84521484 C11.81229433 43.20961794 11.81229433 43.20961794 14 45 C16.21072977 45.24253813 16.21072977 45.24253813 18.625 45.125 C19.44226563 45.10695312 20.25953125 45.08890625 21.1015625 45.0703125 C21.72804688 45.04710937 22.35453125 45.02390625 23 45 C24.1577506 48.47325181 24.06866652 51.36067448 24 55 C18.524739 56.825087 12.69954151 56.60065426 7 56 C3.40035536 53.50793833 1.64243976 50.99195473 0 47 C-0.22705078 44.25097656 -0.22705078 44.25097656 -0.1953125 41.140625 C-0.18564453 39.46806641 -0.18564453 39.46806641 -0.17578125 37.76171875 C-0.15902344 36.60285156 -0.14226562 35.44398437 -0.125 34.25 C-0.11597656 33.07566406 -0.10695313 31.90132812 -0.09765625 30.69140625 C-0.07410063 27.79406464 -0.04120652 24.89713559 0 22 C-2.31 22 -4.62 22 -7 22 C-7 19.03 -7 16.06 -7 13 C-4.69 13 -2.38 13 0 13 C0 8.71 0 4.42 0 0 Z " fill="#082F54" transform="translate(502,73)"/>
<path d="M0 0 C2.37948772 0.17625835 3.70225849 0.69719773 5.37890625 2.40234375 C6.62115486 3.90649092 7.81376056 5.45129851 9 7 C4.22215638 12.53175311 -0.67138351 17.93371614 -5.6875 23.25 C-6.7242688 24.35154419 -6.7242688 24.35154419 -7.78198242 25.4753418 C-12.9622876 30.95682056 -18.25263115 36.30912481 -23.64453125 41.58203125 C-25.64242082 43.63293281 -27.35889021 45.66100963 -29 48 C-32.19363953 46.62140072 -33.99361769 45.11891172 -36.1875 42.4375 C-39.61781672 38.3270987 -43.3977315 34.75401459 -47.375 31.17578125 C-49 29 -49 29 -48.91015625 26.375 C-47.68594963 23.18050375 -45.7677263 21.91611821 -43 20 C-39.33213607 21.50349377 -37.31089607 23.63728792 -34.75 26.625 C-34.04359375 27.44226563 -33.3371875 28.25953125 -32.609375 29.1015625 C-32.07828125 29.72804687 -31.5471875 30.35453125 -31 31 C-27.93392564 29.64485436 -25.96704538 28.16305489 -23.71484375 25.69140625 C-22.8024292 24.70164795 -22.8024292 24.70164795 -21.87158203 23.69189453 C-21.23333496 22.98919434 -20.59508789 22.28649414 -19.9375 21.5625 C-18.6018226 20.11184133 -17.26457071 18.66263085 -15.92578125 17.21484375 C-15.26529785 16.50054199 -14.60481445 15.78624023 -13.92431641 15.05029297 C-10.37965614 11.27357933 -6.68195662 7.65701369 -2.9765625 4.0390625 C-0.95227746 2.15574305 -0.95227746 2.15574305 0 0 Z " fill="#11AA64" transform="translate(191,104)"/>
<path d="M0 0 C3.96 0 7.92 0 12 0 C12 20.13 12 40.26 12 61 C7.71 61 3.42 61 -1 61 C-1.02255497 53.19424413 -1.04091738 45.38850593 -1.05181217 37.58272648 C-1.05704002 33.9585404 -1.06413587 30.3343777 -1.07543945 26.71020508 C-1.08627184 23.21540025 -1.09227758 19.72061796 -1.09487724 16.22579765 C-1.09763551 14.23760611 -1.10544688 12.24942369 -1.11329651 10.26124573 C-1.11337204 9.06007614 -1.11344757 7.85890656 -1.11352539 6.62133789 C-1.115746 5.55766495 -1.11796661 4.493992 -1.12025452 3.39808655 C-1 1 -1 1 0 0 Z " fill="#1A3E63" transform="translate(236,68)"/>
<path d="M0 0 C0.69582687 0.00091141 1.39165375 0.00182281 2.10856628 0.00276184 C2.8263475 -0.00152328 3.54412872 -0.00580841 4.28366089 -0.01022339 C5.80430547 -0.0159707 7.32497756 -0.01646399 8.84562683 -0.01213074 C11.16357456 -0.008983 13.48023073 -0.03237988 15.79801941 -0.05778503 C17.27653343 -0.06005935 18.75505087 -0.06076091 20.23356628 -0.05973816 C21.26819756 -0.07355278 21.26819756 -0.07355278 22.32373047 -0.08764648 C26.68115408 -0.04613635 29.41449111 0.62478229 32.87028503 3.30354309 C35.35477703 7.03028108 35.14221635 9.90741593 35.10075378 14.21760559 C35.10029556 14.98785065 35.09983734 15.7580957 35.09936523 16.55168152 C35.09634713 18.17731775 35.088474 19.80295119 35.07609558 21.42854309 C35.05780335 23.92604223 35.05558618 26.42317137 35.05583191 28.92073059 C35.05091796 30.49885882 35.04509018 32.07698452 35.03825378 33.65510559 C35.03714096 34.40611542 35.03602814 35.15712524 35.03488159 35.93089294 C34.98634639 41.18748174 34.98634639 41.18748174 33.87028503 42.30354309 C31.56028503 42.30354309 29.25028503 42.30354309 26.87028503 42.30354309 C26.54028503 31.08354309 26.21028503 19.86354309 25.87028503 8.30354309 C14.98028503 8.30354309 4.09028503 8.30354309 -7.12971497 8.30354309 C-7.12971497 1.08393458 -6.84717186 0.10128462 0 0 Z " fill="#14385E" transform="translate(147.1297149658203,12.696456909179688)"/>
<path d="M0 0 C3 0.125 3 0.125 4 1.125 C4.15970246 3.49812922 4.2593206 5.84641373 4.31640625 8.22265625 C4.35451416 9.51953369 4.39262207 10.81641113 4.43188477 12.15258789 C4.47498779 13.81410889 4.51809082 15.47562988 4.5625 17.1875 C4.706875 22.446875 4.85125 27.70625 5 33.125 C20.84 33.62 20.84 33.62 37 34.125 C37 36.765 37 39.405 37 42.125 C31.96473046 42.27364546 26.93074515 42.38235139 21.89379883 42.45458984 C20.18165841 42.48470978 18.46967163 42.52561592 16.75805664 42.57763672 C14.29274589 42.65067236 11.8294787 42.68450102 9.36328125 42.7109375 C8.60163162 42.74190521 7.83998199 42.77287292 7.05525208 42.80477905 C2.93064742 42.80737385 1.19131669 42.2864796 -1.98999023 39.60131836 C-4.54416513 35.94604957 -4.65795962 32.25862273 -4.5234375 27.91796875 C-4.51873444 27.15196854 -4.51403137 26.38596832 -4.50918579 25.59675598 C-4.4879548 23.16772969 -4.43136884 20.74093709 -4.375 18.3125 C-4.35848172 16.66212989 -4.34413653 15.01173651 -4.33203125 13.36132812 C-4.18313957 0.17429748 -4.18313957 0.17429748 0 0 Z " fill="#1A395D" transform="translate(28,130.875)"/>
<path d="M0 0 C0.77403168 0.00141495 1.54806335 0.0028299 2.34555054 0.00428772 C4.82155192 0.00989222 7.29746338 0.02244542 9.7734375 0.03515625 C11.45051953 0.04017067 13.12760297 0.04473368 14.8046875 0.04882812 C18.91930556 0.0598631 23.03385628 0.07713071 27.1484375 0.09765625 C27.1484375 2.73765625 27.1484375 5.37765625 27.1484375 8.09765625 C11.3084375 8.59265625 11.3084375 8.59265625 -4.8515625 9.09765625 C-5.14089122 19.58372158 -5.14089122 19.58372158 -5.41967773 30.07006836 C-5.45778564 31.3669458 -5.49589355 32.66382324 -5.53515625 34 C-5.55163208 34.68582153 -5.56810791 35.37164307 -5.58508301 36.07824707 C-5.7374907 40.98358445 -5.7374907 40.98358445 -6.8515625 42.09765625 C-9.8515625 42.22265625 -9.8515625 42.22265625 -12.8515625 42.09765625 C-14.83532715 40.1138916 -14.06290768 36.23517141 -14.08984375 33.51953125 C-14.0979155 32.75594299 -14.10598724 31.99235474 -14.11430359 31.20562744 C-14.12816167 29.58486207 -14.13887609 27.96406731 -14.14672852 26.34326172 C-14.16389688 23.87150042 -14.20775918 21.40109215 -14.25195312 18.9296875 C-14.26208378 17.3554786 -14.27059872 15.7812583 -14.27734375 14.20703125 C-14.29485184 13.47039246 -14.31235992 12.73375366 -14.33039856 11.97479248 C-14.31495903 8.29577313 -13.96542926 6.27396042 -11.94995117 3.15332031 C-8.22671754 -0.49410577 -4.95182441 -0.03383972 0 0 Z " fill="#10345B" transform="translate(37.8515625,12.90234375)"/>
<path d="M0 0 C1.32 0.66 2.64 1.32 4 2 C4.14567407 5.56206722 4.23419196 9.12336551 4.3125 12.6875 C4.35439453 13.69490234 4.39628906 14.70230469 4.43945312 15.74023438 C4.45556641 16.71669922 4.47167969 17.69316406 4.48828125 18.69921875 C4.51446533 19.59471436 4.54064941 20.49020996 4.56762695 21.4128418 C3.71976009 25.27729132 2.16321018 26.67508181 -1 29 C-3.99191443 29.43857267 -6.39014885 29.58901776 -9.36328125 29.48828125 C-10.15526413 29.48120651 -10.94724701 29.47413177 -11.76322937 29.46684265 C-14.28063389 29.43896244 -16.79577356 29.376242 -19.3125 29.3125 C-21.0240563 29.28740861 -22.73564765 29.26459691 -24.44726562 29.24414062 C-28.63237654 29.18915747 -32.81580496 29.10293418 -37 29 C-37 26.36 -37 23.72 -37 21 C-26.11 21 -15.22 21 -4 21 C-4.15767745 15.58462705 -4.15767745 15.58462705 -4.36035156 10.17089844 C-4.44275558 4.55945085 -4.44275558 4.55945085 -1.984375 1.453125 C-1.32953125 0.97359375 -0.6746875 0.4940625 0 0 Z " fill="#1C3C5F" transform="translate(178,144)"/>
<path d="M0 0 C3.76115969 2.06495042 7.09650288 4.08725592 9 8 C9.23534378 11.01763028 9.1742084 13.98038766 9 17 C8.34 17 7.68 17 7 17 C6.731875 17.598125 6.46375 18.19625 6.1875 18.8125 C4.95673301 21.07970235 4.00341525 22.3855096 2 24 C-1.38957368 24.68940482 -4.59883918 24.60211938 -8 24 C-11.0625 21.5625 -11.0625 21.5625 -13 19 C-13.33 18.67 -13.66 18.34 -14 18 C-14.29416855 12.21468522 -14.33930889 6.94956338 -10.5625 2.1875 C-7.26609573 -0.31776725 -3.98021054 -0.39021672 0 0 Z " fill="#F1F3F5" transform="translate(414,95)"/>
<path d="M0 0 C2.701875 -0.103125 5.40375 -0.20625 8.1875 -0.3125 C9.02949951 -0.35802002 9.87149902 -0.40354004 10.73901367 -0.45043945 C14.9370164 -0.5277829 16.55414451 -0.34060815 20.01171875 2.30078125 C22 5 22 5 22.625 8.5 C21.85210991 12.82818451 20.33130443 14.23745486 17 17 C16.67 17.33 16.34 17.66 16 18 C13.3013095 18.07325436 10.63497444 18.09222351 7.9375 18.0625 C5.318125 18.041875 2.69875 18.02125 0 18 C0 12.06 0 6.12 0 0 Z " fill="#F1F9F6" transform="translate(686,80)"/>
<path d="M0 0 C0.66 0 1.32 0 2 0 C2.98916033 2.35039013 3.96636681 4.70466861 4.9375 7.0625 C5.21529297 7.71927734 5.49308594 8.37605469 5.77929688 9.05273438 C6.04677734 9.70693359 6.31425781 10.36113281 6.58984375 11.03515625 C6.83597412 11.6269165 7.08210449 12.21867676 7.33569336 12.82836914 C8.24459846 15.79959696 8.56058441 18.92409084 9 22 C3.72 22 -1.56 22 -7 22 C-5.04910592 14.48905779 -2.76288395 7.25081726 0 0 Z " fill="#E6F6EF" transform="translate(634,84)"/>
<path d="M0 0 C0.33 0 0.66 0 1 0 C1 7.26 1 14.52 1 22 C1.99 22 2.98 22 4 22 C4.66 18.37 5.32 14.74 6 11 C10 12 10 12 11 13 C11.40456161 17.77382704 11.44616965 20.12359533 9.25 24.4375 C7.05564244 26.93662944 6.24889654 27.76793596 3 28 C3 27.34 3 26.68 3 26 C1.68 26.33 0.36 26.66 -1 27 C-0.67 18.09 -0.34 9.18 0 0 Z " fill="#D1D9E0" transform="translate(135,83)"/>
<path d="M0 0 C0.33 0 0.66 0 1 0 C1 5.61 1 11.22 1 17 C-0.32 16.67 -1.64 16.34 -3 16 C-3.33 13.36 -3.66 10.72 -4 8 C-5.32 8.33 -6.64 8.66 -8 9 C-8.33 10.65 -8.66 12.3 -9 14 C-9.66 12.68 -10.32 11.36 -11 10 C-11.66 10.66 -12.32 11.32 -13 12 C-13.75 9.75 -13.75 9.75 -14 7 C-12.35261236 4.42148021 -11.00938656 3.25682617 -8.01953125 2.49609375 C-2.57478784 1.71260608 -2.57478784 1.71260608 0 3 C0 2.01 0 1.02 0 0 Z " fill="#183B62" transform="translate(65,87)"/>
<path d="M0 0 C0.14695312 0.6290625 0.29390625 1.258125 0.4453125 1.90625 C1.96633254 7.71060235 3.92256226 11.81073086 7.79296875 16.40625 C9 18 9 18 9 20 C5.84113505 19.92478893 3.69915712 19.62522327 1.30078125 17.48046875 C-3.51292924 11.94411891 -4.11814515 8.20685437 -4 1 C-1 0 -1 0 0 0 Z " fill="#143359" transform="translate(55,96)"/>
<path d="M0 0 C0 0.99 0 1.98 0 3 C-6.6 3 -13.2 3 -20 3 C-19.67 1.68 -19.34 0.36 -19 -1 C-12.47009776 -4.84111896 -6.32310218 -3.09702964 0 0 Z " fill="#294468" transform="translate(93,89)"/>
<path d="M0 0 C1.06927734 0.24363281 1.06927734 0.24363281 2.16015625 0.4921875 C8.66344275 1.65508605 15.55264127 1.39402351 22 0 C21.8125 1.875 21.8125 1.875 21 4 C16.76884889 6.64446944 11.82836456 6.56755904 7 6 C4.48332764 5.20405061 2.36341196 4.20684866 0 3 C0 2.01 0 1.02 0 0 Z " fill="#325176" transform="translate(89,127)"/>
<path d="M0 0 C1.25554687 -0.01417969 2.51109375 -0.02835937 3.8046875 -0.04296875 C7.125 0.1875 7.125 0.1875 10.125 2.1875 C9.795 3.5075 9.465 4.8275 9.125 6.1875 C8.135 5.8575 7.145 5.5275 6.125 5.1875 C3.55234182 5.11720879 1.00858569 5.09379168 -1.5625 5.125 C-2.26439453 5.12951172 -2.96628906 5.13402344 -3.68945312 5.13867188 C-5.41800538 5.15043073 -7.14651365 5.16836546 -8.875 5.1875 C-7.55477844 -0.6591955 -5.92194107 0.03027577 0 0 Z " fill="#1D3A61" transform="translate(116.875,86.8125)"/>
<path d="M0 0 C1.15892509 0.00424484 1.15892509 0.00424484 2.34126282 0.00857544 C4.80709368 0.01976372 7.27256031 0.04486547 9.73828125 0.0703125 C11.41080204 0.08034407 13.08332853 0.08946961 14.75585938 0.09765625 C18.85430684 0.11969858 22.95248231 0.15421887 27.05078125 0.1953125 C27.05078125 0.5253125 27.05078125 0.8553125 27.05078125 1.1953125 C18.80078125 1.1953125 10.55078125 1.1953125 2.05078125 1.1953125 C2.05078125 1.8553125 2.05078125 2.5153125 2.05078125 3.1953125 C1.12845703 3.12570313 1.12845703 3.12570313 0.1875 3.0546875 C-2.2466705 2.94598451 -4.52858277 2.90346277 -6.94921875 3.1953125 C-9.07277442 5.01803177 -9.07277442 5.01803177 -9.94921875 7.1953125 C-10.93921875 6.8653125 -11.92921875 6.5353125 -12.94921875 6.1953125 C-10.21774584 -0.10808653 -6.26680241 -0.08624136 0 0 Z " fill="#446082" transform="translate(37.94921875,12.8046875)"/>
<path d="M0 0 C0.99 0.33 1.98 0.66 3 1 C2.88623383 3.12563103 2.75864369 5.2505261 2.625 7.375 C2.55539063 8.55835938 2.48578125 9.74171875 2.4140625 10.9609375 C2 14 2 14 0 16 C-0.69748583 17.31747324 -1.36959957 18.64914193 -2 20 C-2.24858198 17.22965863 -2.47452879 14.46060931 -2.6875 11.6875 C-2.76033203 10.90181641 -2.83316406 10.11613281 -2.90820312 9.30664062 C-2.96298828 8.54931641 -3.01777344 7.79199219 -3.07421875 7.01171875 C-3.13182373 6.31522217 -3.18942871 5.61872559 -3.2487793 4.90112305 C-2.92238821 2.40690575 -1.8898183 1.5788082 0 0 Z " fill="#0E3157" transform="translate(178,144)"/>
<path d="M0 0 C6.4 -0.49230769 6.4 -0.49230769 9.4375 2 C10.2109375 2.99 10.2109375 2.99 11 4 C9.68 3.67 8.36 3.34 7 3 C6.67 4.65 6.34 6.3 6 8 C4.125 8.625 4.125 8.625 2 9 C0 7 0 7 -0.125 3.375 C-0.08375 2.26125 -0.0425 1.1475 0 0 Z " fill="#102E55" transform="translate(114,96)"/>
<path d="M0 0 C0.66 0 1.32 0 2 0 C2.08160748 1.89510699 2.13946459 3.79124504 2.1875 5.6875 C2.22230469 6.74324219 2.25710937 7.79898438 2.29296875 8.88671875 C1.9614422 12.40974086 1.1527715 14.21494596 -1 17 C-1.99 17.33 -2.98 17.66 -4 18 C-4.99 16.68 -5.98 15.36 -7 14 C-3.25 11 -3.25 11 -1 11 C-1.01160156 10.28972656 -1.02320313 9.57945313 -1.03515625 8.84765625 C-1.04869141 7.46900391 -1.04869141 7.46900391 -1.0625 6.0625 C-1.07410156 5.14597656 -1.08570313 4.22945313 -1.09765625 3.28515625 C-1 1 -1 1 0 0 Z " fill="#0B284D" transform="translate(148,96)"/>
<path d="M0 0 C0.99 0 1.98 0 3 0 C3 0.66 3 1.32 3 2 C4.65 2 6.3 2 8 2 C8.33 3.32 8.66 4.64 9 6 C7.02 6.33 5.04 6.66 3 7 C2.67 9.64 2.34 12.28 2 15 C1.67 15 1.34 15 1 15 C1 12.36 1 9.72 1 7 C0.34 7 -0.32 7 -1 7 C-1.04254356 5.00045254 -1.04080783 2.99958364 -1 1 C-0.67 0.67 -0.34 0.34 0 0 Z " fill="#1E3D64" transform="translate(135,109)"/>
<path d="M0 0 C3 0.125 3 0.125 4 1.125 C4.125 4.125 4.125 4.125 4 7.125 C3 8.125 3 8.125 0 8.25 C-3 8.125 -3 8.125 -4 7.125 C-4.125 4.125 -4.125 4.125 -4 1.125 C-3 0.125 -3 0.125 0 0 Z " fill="#0F2D51" transform="translate(84,95.875)"/>
<path d="M0 0 C0.7734375 -0.00515625 1.546875 -0.0103125 2.34375 -0.015625 C4.5 0.25 4.5 0.25 7.5 2.25 C7.5 2.91 7.5 3.57 7.5 4.25 C4.48509443 5.25496852 2.45818308 5.35335303 -0.6875 5.3125 C-1.58855469 5.30347656 -2.48960938 5.29445312 -3.41796875 5.28515625 C-4.10503906 5.27355469 -4.79210937 5.26195312 -5.5 5.25 C-5.5 4.59 -5.5 3.93 -5.5 3.25 C-6.16 2.92 -6.82 2.59 -7.5 2.25 C-4.377998 0.16866533 -3.56733011 -0.0237822 0 0 Z " fill="#0E2E50" transform="translate(100.5,147.75)"/>
<path d="M0 0 C4.5 4.5 4.5 4.5 5 8 C4.01 8 3.02 8 2 8 C1.67 17.57 1.34 27.14 1 37 C0.67 37 0.34 37 0 37 C0 24.79 0 12.58 0 0 Z " fill="#D4DBE2" transform="translate(547,92)"/>
<path d="M0 0 C1.9078584 3.1749094 2.1609041 5.10585211 1.625 8.75 C1.51414063 9.54921875 1.40328125 10.3484375 1.2890625 11.171875 C1.19367188 11.77515625 1.09828125 12.3784375 1 13 C-0.65 13.66 -2.3 14.32 -4 15 C-4.27944109 9.13173703 -3.26845713 4.90268569 0 0 Z " fill="#11345D" transform="translate(135,112)"/>
<path d="M0 0 C1.98 0 3.96 0 6 0 C6.33 2.64 6.66 5.28 7 8 C6.01 8 5.02 8 4 8 C3.01 9.485 3.01 9.485 2 11 C2 9.35 2 7.7 2 6 C0.35 5.67 -1.3 5.34 -3 5 C-2.34 4.67 -1.68 4.34 -1 4 C-0.01 4.33 0.98 4.66 2 5 C2 4.34 2 3.68 2 3 C1.34 2.67 0.68 2.34 0 2 C0 1.34 0 0.68 0 0 Z " fill="#274567" transform="translate(62,111)"/>
<path d="M0 0 C0.99 0 1.98 0 3 0 C3 4.95 3 9.9 3 15 C2.01 15 1.02 15 0 15 C0 10.05 0 5.1 0 0 Z " fill="#2C4262" transform="translate(101,97)"/>
<path d="M0 0 C-0.33 1.65 -0.66 3.3 -1 5 C-3.64 5 -6.28 5 -9 5 C-9 3.68 -9 2.36 -9 1 C-5.8035914 -0.06546953 -3.34252724 -0.07427838 0 0 Z " fill="#082546" transform="translate(572,115)"/>
<path d="M0 0 C3.96 0 7.92 0 12 0 C12 0.99 12 1.98 12 3 C9.24921116 3.91692961 7.64051087 4.10886083 4.8125 4.0625 C2.9253125 4.0315625 2.9253125 4.0315625 1 4 C0.67 2.68 0.34 1.36 0 0 Z " fill="#2C4162" transform="translate(95,116)"/>
<path d="M0 0 C0.66 0 1.32 0 2 0 C3.32 2.31 4.64 4.62 6 7 C4.02 7.66 2.04 8.32 0 9 C-0.99 6.69 -1.98 4.38 -3 2 C-2.01 2 -1.02 2 0 2 C0 1.34 0 0.68 0 0 Z " fill="#1E3F67" transform="translate(70,126)"/>
<path d="M0 0 C2 1 2 1 2.75 2.6875 C3.08937645 5.82673219 2.12469641 8.08902106 1 11 C0.34 9.68 -0.32 8.36 -1 7 C-1.66 7.66 -2.32 8.32 -3 9 C-3.75 6.75 -3.75 6.75 -4 4 C-2.0625 1.6875 -2.0625 1.6875 0 0 Z " fill="#224366" transform="translate(55,90)"/>
<path d="M0 0 C-0.3125 1.9375 -0.3125 1.9375 -1 4 C-4.47325181 5.1577506 -7.36067448 5.06866652 -11 5 C-7.29318258 1.89428811 -4.9778821 0 0 0 Z " fill="#16325A" transform="translate(111,127)"/>
<path d="M0 0 C3.63 0 7.26 0 11 0 C9.875 2.5 9.875 2.5 8 5 C4.8125 5.3125 4.8125 5.3125 2 5 C2.33 4.01 2.66 3.02 3 2 C2.01 1.34 1.02 0.68 0 0 Z " fill="#D5DCE3" transform="translate(112,91)"/>
<path d="M0 0 C1.46726798 3.81489674 0.43336419 6.29011622 -1 10 C-1.99 10 -2.98 10 -4 10 C-4 7.69 -4 5.38 -4 3 C-3.01 3 -2.02 3 -1 3 C-0.67 2.01 -0.34 1.02 0 0 Z " fill="#2D4E70" transform="translate(140,95)"/>
<path d="M0 0 C1.37562854 1.28965176 2.70766393 2.62689293 4 4 C4 4.66 4 5.32 4 6 C-0.95 6 -5.9 6 -11 6 C-11 5.67 -11 5.34 -11 5 C-10.37351562 4.97421875 -9.74703125 4.9484375 -9.1015625 4.921875 C-8.28429687 4.86515625 -7.46703125 4.8084375 -6.625 4.75 C-5.81289063 4.70359375 -5.00078125 4.6571875 -4.1640625 4.609375 C-1.81161073 4.2077908 -1.81161073 4.2077908 -0.7109375 1.953125 C-0.47632813 1.30859375 -0.24171875 0.6640625 0 0 Z " fill="#45B880" transform="translate(779,123)"/>
<path d="M0 0 C0.29296875 6.0546875 0.29296875 6.0546875 0 8 C-0.99 8.66 -1.98 9.32 -3 10 C-4 9 -4 9 -4.09765625 7.15234375 C-4.06510417 5.1015625 -4.03255208 3.05078125 -4 1 C-1 0 -1 0 0 0 Z " fill="#031E45" transform="translate(55,96)"/>
<path d="M0 0 C0.66 0.33 1.32 0.66 2 1 C1.979375 2.0725 1.95875 3.145 1.9375 4.25 C1.9857984 7.14790424 2.13155885 9.28612141 3 12 C2.01 12.495 2.01 12.495 1 13 C0.34 12.67 -0.32 12.34 -1 12 C-0.67 8.04 -0.34 4.08 0 0 Z " fill="#05234A" transform="translate(137,86)"/>
<path d="M0 0 C0 4.09089094 -1.69866948 5.44918487 -4.33203125 8.4140625 C-6.36890116 10.35075848 -8.29054445 11.28279118 -11 12 C-7.49102731 7.81576108 -3.91939465 3.80411834 0 0 Z " fill="#2CB376" transform="translate(181,115)"/>
<path d="M0 0 C1.65 0.33 3.3 0.66 5 1 C5 1.99 5 2.98 5 4 C4.34 4.66 3.68 5.32 3 6 C-0.125 5.625 -0.125 5.625 -3 5 C-2.34 4.67 -1.68 4.34 -1 4 C-0.34786708 1.97536745 -0.34786708 1.97536745 0 0 Z " fill="#1F4167" transform="translate(92,146)"/>
<path d="M0 0 C0.66 0.99 1.32 1.98 2 3 C1.67 3.33 1.34 3.66 1 4 C0.84379445 5.41327947 0.74943827 6.8335459 0.68359375 8.25390625 C0.64169922 9.10791016 0.59980469 9.96191406 0.55664062 10.84179688 C0.51732422 11.73962891 0.47800781 12.63746094 0.4375 13.5625 C0.39431641 14.46419922 0.35113281 15.36589844 0.30664062 16.29492188 C0.20021858 18.52978485 0.09820012 20.76476308 0 23 C-0.33 23 -0.66 23 -1 23 C-1.02894547 19.54168414 -1.04678 16.08339928 -1.0625 12.625 C-1.07087891 11.64015625 -1.07925781 10.6553125 -1.08789062 9.640625 C-1.09111328 8.69960937 -1.09433594 7.75859375 -1.09765625 6.7890625 C-1.10289307 5.91975098 -1.10812988 5.05043945 -1.11352539 4.15478516 C-1 2 -1 2 0 0 Z " fill="#CFD9E2" transform="translate(67,79)"/>
<path d="M0 0 C0.66 0 1.32 0 2 0 C2 2.64 2 5.28 2 8 C1.01 8.495 1.01 8.495 0 9 C0 8.01 0 7.02 0 6 C-0.66 6 -1.32 6 -2 6 C-1.125 1.125 -1.125 1.125 0 0 Z " fill="#0A2847" transform="translate(343,113)"/>
<path d="M0 0 C0.99 0.33 1.98 0.66 3 1 C2.21625 1.7425 1.4325 2.485 0.625 3.25 C-1.56504531 5.54433318 -2.82731386 7.12158858 -4 10 C-4.66 8.68 -5.32 7.36 -6 6 C-4.02 4.02 -2.04 2.04 0 0 Z " fill="#3E5877" transform="translate(314,115)"/>
<path d="M0 0 C0.33 0 0.66 0 1 0 C1 2.97 1 5.94 1 9 C0.01 9 -0.98 9 -2 9 C-2.125 5.625 -2.125 5.625 -2 2 C-1.34 1.34 -0.68 0.68 0 0 Z " fill="#0C2D49" transform="translate(28,45)"/>
<path d="M0 0 C0.66 0 1.32 0 2 0 C1.40138258 2.35171131 0.73075648 4.6859378 0 7 C-0.99 7.495 -0.99 7.495 -2 8 C-2 7.34 -2 6.68 -2 6 C-2.66 5.67 -3.32 5.34 -4 5 C-2.71937515 3.2925002 -1.38232443 1.62626404 0 0 Z " fill="#132F53" transform="translate(127,133)"/>
<path d="M0 0 C4.75 0.875 4.75 0.875 7 2 C7 2.66 7 3.32 7 4 C5.02 4 3.04 4 1 4 C0.67 2.68 0.34 1.36 0 0 Z " fill="#213B62" transform="translate(89,127)"/>
<path d="M0 0 C0.66 0.66 1.32 1.32 2 2 C1.625 4.625 1.625 4.625 1 7 C2.65 7 4.3 7 6 7 C6 7.33 6 7.66 6 8 C4.00045254 8.04254356 1.99958364 8.04080783 0 8 C-1 7 -1 7 -1.125 4 C-1 1 -1 1 0 0 Z " fill="#3D5679" transform="translate(81,96)"/>
<path d="M0 0 C6.4 -0.49230769 6.4 -0.49230769 9.4375 2 C10.2109375 2.99 10.2109375 2.99 11 4 C8.36 4 5.72 4 3 4 C3.33 3.01 3.66 2.02 4 1 C2.68 0.67 1.36 0.34 0 0 Z " fill="#1A355D" transform="translate(114,96)"/>
<path d="M0 0 C0 0.99 0 1.98 0 3 C-2.35438733 4.42944945 -3.48032433 5.08661261 -6.25 4.625 C-6.8275 4.41875 -7.405 4.2125 -8 4 C-8 3.34 -8 2.68 -8 2 C-5.09399739 0.74335022 -3.20395416 0 0 0 Z " fill="#0E325E" transform="translate(125,139)"/>
<path d="M0 0 C0.33 0.66 0.66 1.32 1 2 C1.66 2.33 2.32 2.66 3 3 C2.34 4.32 1.68 5.64 1 7 C0.34 7 -0.32 7 -1 7 C-1.66 5.35 -2.32 3.7 -3 2 C-2.01 1.34 -1.02 0.68 0 0 Z " fill="#E2E7EB" transform="translate(567,97)"/>
<path d="M0 0 C0.66 0.99 1.32 1.98 2 3 C1.67 3.33 1.34 3.66 1 4 C0.76518307 6.18292774 0.58636677 8.37203174 0.4375 10.5625 C0.35371094 11.76003906 0.26992188 12.95757812 0.18359375 14.19140625 C0.12300781 15.11824219 0.06242187 16.04507813 0 17 C-0.33 17 -0.66 17 -1 17 C-1.02691685 14.54159395 -1.04679802 12.08348118 -1.0625 9.625 C-1.07087891 8.92632812 -1.07925781 8.22765625 -1.08789062 7.5078125 C-1.11328125 2.2265625 -1.11328125 2.2265625 0 0 Z " fill="#334E6E" transform="translate(389,97)"/>
<path d="M0 0 C-0.66 1.32 -1.32 2.64 -2 4 C-3.98 4 -5.96 4 -8 4 C-5.29881977 1.17603885 -4.05589853 0 0 0 Z " fill="#203D5F" transform="translate(86,38)"/>
<path d="M0 0 C1.98 0.99 1.98 0.99 4 2 C4 3.32 4 4.64 4 6 C2.68 6 1.36 6 0 6 C0 4.02 0 2.04 0 0 Z " fill="#092647" transform="translate(65,117)"/>
<path d="M0 0 C2.17766075 4.35532149 2.03039555 5.46625958 1 10 C0.01 10.33 -0.98 10.66 -2 11 C-1.34 7.37 -0.68 3.74 0 0 Z " fill="#203F64" transform="translate(146,97)"/>
<path d="M0 0 C0.66 0 1.32 0 2 0 C2 0.99 2 1.98 2 3 C2.99 3.33 3.98 3.66 5 4 C4.67 4.66 4.34 5.32 4 6 C2.68 6 1.36 6 0 6 C0 4.02 0 2.04 0 0 Z " fill="#233B5E" transform="translate(140,15)"/>
<path d="M0 0 C1.98 0.495 1.98 0.495 4 1 C3.67 1.99 3.34 2.98 3 4 C0.9375 4.6875 0.9375 4.6875 -1 5 C-0.67 3.35 -0.34 1.7 0 0 Z " fill="#0D294C" transform="translate(132,122)"/>
<path d="M0 0 C0.66 0 1.32 0 2 0 C2 2.31 2 4.62 2 7 C1.34 7 0.68 7 0 7 C-0.38133299 5.0085944 -0.71325582 3.00720923 -1 1 C-0.67 0.67 -0.34 0.34 0 0 Z " fill="#092444" transform="translate(148,96)"/>
<path d="M0 0 C2.0625 0.4375 2.0625 0.4375 4 1 C3.34 1 2.68 1 2 1 C2 2.32 2 3.64 2 5 C0.68 5 -0.64 5 -2 5 C-1.125 1.125 -1.125 1.125 0 0 Z " fill="#2D4666" transform="translate(110,87)"/>
<path d="M0 0 C2 1.375 2 1.375 4 3 C4 3.66 4 4.32 4 5 C3.01 5.33 2.02 5.66 1 6 C0.01 4.68 -0.98 3.36 -2 2 C-1.34 1.34 -0.68 0.68 0 0 Z " fill="#173255" transform="translate(143,108)"/>
<path d="M0 0 C1.0625 1.875 1.0625 1.875 2 4 C1.67 4.66 1.34 5.32 1 6 C0.34 6 -0.32 6 -1 6 C-1 6.66 -1 7.32 -1 8 C-1.66 8 -2.32 8 -3 8 C-1.125 2.25 -1.125 2.25 0 0 Z " fill="#2E4D71" transform="translate(572,94)"/>
</svg>
